<?xml version="1.0" encoding="utf-8"?>
<!-- Generator: Adobe Illustrator 13.0.0, SVG Export Plug-In  -->
<!DOCTYPE svg PUBLIC "-//W3C//DTD SVG 1.1//EN" "http://www.w3.org/Graphics/SVG/1.1/DTD/svg11.dtd" [
	<!ENTITY ns_flows "http://ns.adobe.com/Flows/1.0/">
]>
<svg version="1.1"
	 xmlns="http://www.w3.org/2000/svg" xmlns:xlink="http://www.w3.org/1999/xlink" xmlns:a="http://ns.adobe.com/AdobeSVGViewerExtensions/3.0/"
	 x="0px" y="0px" width="576px" height="508px" viewBox="-0.531 -0.83 576 508" enable-background="new -0.531 -0.83 576 508"
	 xml:space="preserve">
<defs>
</defs>
<path fill="#FFFFFF" stroke="#000000" stroke-linecap="round" stroke-linejoin="round" d="M4.648,459.395L260.653,15.982
	C266.185,6.402,276.407,0.5,287.469,0.5c11.063,0,21.284,5.902,26.815,15.482l256.005,443.413c5.531,9.58,5.531,21.384,0,30.964
	c-5.53,9.58-15.753,15.482-26.815,15.482H31.463c-11.062,0-21.284-5.902-26.815-15.482C-0.883,480.779-0.883,468.975,4.648,459.395z
	"/>
<path fill="#F81A0E" stroke="#FF0000" stroke-width="0.1764" stroke-linecap="round" stroke-linejoin="round" d="M31.374,493.456
	h512.191c6.618,0,12.734-3.531,16.044-9.264c3.31-5.731,3.31-12.794,0-18.525L303.513,22.096c-3.31-5.732-9.425-9.263-16.044-9.263
	c-6.619,0-12.734,3.531-16.043,9.263L15.33,465.667c-3.31,5.731-3.31,12.794,0,18.525C18.639,489.924,24.755,493.456,31.374,493.456
	z"/>
<polygon fill="#FFFFFF" stroke="#FF0000" stroke-width="0.1764" stroke-linecap="round" stroke-linejoin="round" points="
	287.469,68.62 511.296,456.299 63.642,456.299 "/>
<path stroke="#000000" stroke-width="0.1764" stroke-linecap="round" stroke-linejoin="round" d="M374.51,299.314l-1.415-8.267
	c6.903-2.968,10.73-10.416,9.124-17.756s-8.194-12.509-15.706-12.322c-7.511,0.187-13.834,5.676-15.074,13.087
	c-1.239,7.411,2.953,14.659,9.995,17.28l-0.27,3.771l-25.397,20.238l-27.535,0.389l-2.438-25.175l-2.507-4.986l-36.974-22.672
	l-3.083-2.975l-4.944-5.883l3.007-8.056c8.635-5.184,12.602-15.605,9.599-25.219c-3.003-9.614-12.194-15.925-22.246-15.274
	c-10.051,0.651-18.351,8.097-20.087,18.018s3.542,19.743,12.775,23.769l-0.066,7.78l-11.834,7.01l-8.792,13.288l-12.677,15.626
	l-29.018,16.154l-1.555,6.954l4.337,5.377l33.224-15l18.413-19.408l-1.024,37.796l-16.85,41.084l-5.435,38.291l-6.646,3.037
	l-1.885,4.014l24.883,6.186l9.697-41.541l17.271-30.802l18.709,30.151l21.963,19.546l-3.785,9.129l5.271,4.104l4.942,0.979
	l18.391-17.572l-31.546-31.046l-16.468-33.242l0.836-37.432l23.027,7.813l-0.347,27.71l4.704,5.382l4.067-2.336l31.017,0.022
	l17.922-9.503l-11.847,51.976l3.987,4.088l-7.985,7.425l-1.696,32.831l-4.588-0.057l-1.14,3.106l1.947,5.714l13.761,0.355
	l7.224-34.598l10.805-12.712l15.81-2.005l12.324,12.451l27.393,10.988l-0.971,4.209l-0.037,2.937l7.123,2.843l6.407-13.318
	l-37.021-19.001l-0.504-3.677l6.226,1.179l-20.265-52.562l17.15,8.107l2.481,21.688l5.656,2.641l3.164-3.447l1.634-27.877
	l-31.508-19.482L374.51,299.314l0.141-0.306"/>
<polyline fill="none" stroke="#000000" stroke-width="0.1764" stroke-linecap="round" stroke-linejoin="round" points="
	259.884,207.787 259.855,207.026 258.495,207.147 "/>
</svg>
