<?xml version="1.0" encoding="utf-8"?>
<!-- Generator: Adobe Illustrator 13.0.0, SVG Export Plug-In  -->
<!DOCTYPE svg PUBLIC "-//W3C//DTD SVG 1.1//EN" "http://www.w3.org/Graphics/SVG/1.1/DTD/svg11.dtd" [
	<!ENTITY ns_flows "http://ns.adobe.com/Flows/1.0/">
]>
<svg version="1.1"
	 xmlns="http://www.w3.org/2000/svg" xmlns:xlink="http://www.w3.org/1999/xlink" xmlns:a="http://ns.adobe.com/AdobeSVGViewerExtensions/3.0/"
	 x="0px" y="0px" width="598px" height="600px" viewBox="0 -0.031 598 600" enable-background="new 0 -0.031 598 600"
	 xml:space="preserve">
<defs>
</defs>
<line fill="none" stroke="#000000" stroke-width="0.7087" stroke-linecap="round" stroke-linejoin="round" x1="596.049" y1="554.011" x2="596.049" y2="43.927"/>
<polyline fill="none" stroke="#000000" stroke-width="0.7087" stroke-linecap="round" stroke-linejoin="round" points="
	596.049,43.927 595.403,36.545 593.485,29.389 590.354,22.673 586.104,16.604 580.865,11.364 574.796,7.115 568.08,3.983 
	560.923,2.065 553.542,1.42 "/>
<polyline fill="none" stroke="#000000" stroke-width="0.7087" stroke-linecap="round" stroke-linejoin="round" points="43.458,1.42 
	36.077,2.065 28.92,3.983 22.205,7.115 16.135,11.364 10.896,16.604 6.646,22.673 3.515,29.389 1.597,36.545 0.951,43.927 "/>
<line fill="none" stroke="#000000" stroke-width="0.7087" stroke-linecap="round" stroke-linejoin="round" x1="0.951" y1="43.927" x2="0.951" y2="554.011"/>
<path fill="#FFFFFF" stroke="#000000" stroke-width="2" stroke-linecap="round" stroke-linejoin="round" d="M43.515,598.938h510.183
	c11.275,0,22.089-4.498,30.063-12.508c7.973-8.011,12.452-18.873,12.452-30.201V43.71c0-11.327-4.479-22.191-12.452-30.2
	C575.787,5.5,564.974,1,553.698,1H43.515C32.24,1,21.425,5.5,13.453,13.51C5.479,21.519,1,32.383,1,43.71v512.519
	c0,11.328,4.479,22.19,12.453,30.201C21.425,594.439,32.24,598.938,43.515,598.938z"/>
<polyline fill="#0000FF" stroke="#0000FF" stroke-width="0.7087" stroke-linecap="round" stroke-linejoin="round" points="
	43.458,554.011 553.542,554.011 553.542,43.927 43.458,43.927 43.458,554.011 "/>
<path fill="#FFFFFF" d="M119.238,376.51l49.14-5.937c1.389,12.956,5.497,23.219,12.346,30.774
	c6.85,7.568,14.735,11.345,23.668,11.345c10.201,0,18.842-4.972,25.911-14.918c7.066-9.944,10.615-24.934,10.615-44.969
	c0-18.77-3.559-32.858-10.664-42.243c-7.119-9.386-16.368-14.089-27.763-14.089c-14.223,0-26.971,7.289-38.256,21.839l-39.536-6.738
	l24.959-156.281h130.26v53.82h-92.881l-8.056,50.799c11.042-6.301,22.329-9.459,33.845-9.459c21.974,0,40.593,9.386,55.876,28.155
	c15.271,18.767,22.914,43.13,22.914,73.076c0,24.984-6.118,47.274-18.354,66.873c-16.674,26.775-39.816,40.155-69.408,40.155
	c-23.667,0-42.949-7.421-57.868-22.29C131.072,421.565,122.151,401.592,119.238,376.51z"/>
<path fill="#FFFFFF" d="M400.628,149.833c24.777,0,44.144,10.457,58.11,31.36c16.636,24.765,24.96,65.824,24.96,123.179
	c0,57.231-8.385,98.364-25.128,123.398c-13.845,20.637-33.165,30.944-57.942,30.944c-24.898,0-44.972-11.312-60.206-33.942
	c-15.247-22.621-22.864-62.958-22.864-121.007c0-56.94,8.373-97.938,25.131-122.986
	C356.534,160.155,375.839,149.833,400.628,149.833z M400.628,197.413c-5.896,0-11.16,2.254-15.795,6.739
	c-4.632,4.497-8.224,12.541-10.758,24.146c-3.365,15.062-5.037,40.424-5.037,76.084c0,35.659,1.499,60.146,4.513,73.48
	c3.01,13.334,6.797,22.217,11.371,26.641c4.57,4.424,9.811,6.63,15.706,6.63c5.898,0,11.164-2.243,15.795-6.738
	c4.635-4.484,8.217-12.541,10.762-24.146c3.349-14.916,5.034-40.204,5.034-75.867c0-35.662-1.512-60.157-4.519-73.49
	c-3.012-13.331-6.801-22.242-11.371-26.739C411.755,199.667,406.526,197.413,400.628,197.413z"/>
<polygon fill="#FF0000" stroke="#FF0000" stroke-width="0.7087" stroke-linecap="round" stroke-linejoin="round" points="
	499.106,43.927 43.458,499.575 43.458,554.011 103.894,554.011 553.542,104.363 553.542,43.927 "/>
</svg>
