<?xml version="1.0" encoding="UTF-8" standalone="no"?>
<!-- Generator: Adobe Illustrator 13.0.0, SVG Export Plug-In  -->

<svg
   xmlns:dc="http://purl.org/dc/elements/1.1/"
   xmlns:cc="http://creativecommons.org/ns#"
   xmlns:rdf="http://www.w3.org/1999/02/22-rdf-syntax-ns#"
   xmlns:svg="http://www.w3.org/2000/svg"
   xmlns="http://www.w3.org/2000/svg"
   xmlns:sodipodi="http://sodipodi.sourceforge.net/DTD/sodipodi-0.dtd"
   xmlns:inkscape="http://www.inkscape.org/namespaces/inkscape"
   version="1.1"
   x="0px"
   y="0px"
   width="576px"
   height="576px"
   viewBox="-0.531 -0.531 576 576"
   enable-background="new -0.531 -0.531 576 576"
   xml:space="preserve"
   id="svg2"
   inkscape:version="0.48.4 r9939"
   sodipodi:docname="panneau_parking.svg"><metadata
     id="metadata18"><rdf:RDF><cc:Work
         rdf:about=""><dc:format>image/svg+xml</dc:format><dc:type
           rdf:resource="http://purl.org/dc/dcmitype/StillImage" /><dc:title></dc:title></cc:Work></rdf:RDF></metadata><sodipodi:namedview
     pagecolor="#ffffff"
     bordercolor="#666666"
     borderopacity="1"
     objecttolerance="10"
     gridtolerance="10"
     guidetolerance="10"
     inkscape:pageopacity="0"
     inkscape:pageshadow="2"
     inkscape:window-width="1600"
     inkscape:window-height="1145"
     id="namedview16"
     showgrid="false"
     inkscape:zoom="1.1588694"
     inkscape:cx="103.36762"
     inkscape:cy="307.44288"
     inkscape:window-x="1600"
     inkscape:window-y="27"
     inkscape:window-maximized="1"
     inkscape:current-layer="svg2" /><defs
     id="defs4" /><path
     fill="#FFFFFF"
     stroke="#000000"
     stroke-linecap="round"
     stroke-linejoin="round"
     d="M41.496,574.438h491.947  c10.872,0,21.3-4.318,28.988-12.007c7.688-7.688,12.007-18.115,12.007-28.988V41.496c0-10.873-4.319-21.3-12.007-28.988  C554.742,4.819,544.314,0.5,533.442,0.5H41.496c-10.873,0-21.3,4.319-28.988,12.007C4.819,20.195,0.5,30.623,0.5,41.496v491.947  c0,10.873,4.319,21.3,12.007,28.988C20.195,570.119,30.623,574.438,41.496,574.438z"
     id="path6" /><path
     fill="#0000FF"
     stroke="#000000"
     d="M544.919,529.72c0,6.744-5.468,12.214-12.214,12.214H42.659  c-6.746,0-12.214-5.47-12.214-12.214V41.173c0-6.746,5.468-12.214,12.214-12.214h490.046c6.746,0,12.214,5.469,12.214,12.214V529.72  z"
     id="path8" /><path
     fill="none"
     stroke="#0000FF"
     stroke-width="0.1764"
     stroke-linecap="round"
     stroke-linejoin="round"
     d="M235.025,447.142  v2.841h-68.984V123.755h132.196c65.001,0,117.695,52.693,117.695,117.695s-52.694,117.695-117.695,117.695h-63.212V447.142z"
     id="path10" /><path
     fill="none"
     stroke="#0000FF"
     stroke-width="0.1764"
     stroke-linecap="round"
     stroke-linejoin="round"
     d="M238.703,288.582  v-86.777h38.406c24.271,0,43.945,19.675,43.945,43.946s-19.675,43.945-43.945,43.945  C264.299,289.696,251.492,289.325,238.703,288.582z"
     id="path12" /><path
     d="m 390.63782,223.65478 c 0,42.30558 -18.14032,84.60121 -70.12276,84.60121 l -78.55174,0 0,91.27241 0,1.84905 -47.16772,0 0,-254.32388 125.71946,0 c 51.98164,0 70.12276,34.29498 70.12276,76.60121 z m -51.8756,2.79928 c 0,-15.79666 -15.73444,-36.60203 -35.14359,-36.60203 l -58.71395,0 0,72.47838 c 10.22759,0.48358 48.46957,0.72504 58.71395,0.72504 19.40915,0 35.14359,-20.80538 35.14359,-36.60139 z"
     id="path14"
     inkscape:connector-curvature="0"
     style="fill:#ffffff"
     sodipodi:nodetypes="sscccccssssccss" /></svg>