<?xml version="1.0" encoding="utf-8"?>
<!-- Generator: Adobe Illustrator 13.0.0, SVG Export Plug-In . SVG Version: 6.00 Build 14948)  -->
<!DOCTYPE svg PUBLIC "-//W3C//DTD SVG 1.1//EN" "http://www.w3.org/Graphics/SVG/1.1/DTD/svg11.dtd">
<svg version="1.1" id="Layer_1" xmlns="http://www.w3.org/2000/svg" xmlns:xlink="http://www.w3.org/1999/xlink" x="0px" y="0px"
	 width="576px" height="576px" viewBox="-0.943 -0.943 576 576" enable-background="new -0.943 -0.943 576 576"
	 xml:space="preserve">
<circle fill="#FFFFFF" stroke="#000000" stroke-width="2" stroke-linecap="round" stroke-linejoin="round" cx="287.057" cy="287.057" r="286.969"/>
<circle fill="#0000FF" stroke="#0000FF" stroke-width="0.1764" stroke-linecap="round" stroke-linejoin="round" cx="287.057" cy="287.057" r="261.666"/>
<circle fill="#FFFFFF" stroke="#0000FF" stroke-width="0.1764" stroke-linecap="round" stroke-linejoin="round" cx="157.517" cy="336.342" r="8.167"/>
<circle fill="#FFFFFF" stroke="#0000FF" stroke-width="0.1764" stroke-linecap="round" stroke-linejoin="round" cx="299.934" cy="339.313" r="24.616"/>
<circle fill="#FFFFFF" stroke="#0000FF" stroke-width="0.1764" stroke-linecap="round" stroke-linejoin="round" cx="424.935" cy="334.192" r="8.167"/>
<path fill="#FFFFFF" stroke="#0000FF" stroke-width="0.1764" stroke-linecap="round" stroke-linejoin="round" d="M322.821,190.903
	c0.063-7.394-1.175-7.676,6.054-8.091c7.518-0.432,15.032-0.864,22.549-1.295c5.111-0.294,10.212-0.973,15.305-1.496
	c8.133-0.835,10.409-3.131,14.174,4.147c4.13,7.985-18.452,14.277-23.66,14.12C343.847,197.885,335.441,195.587,322.821,190.903"/>
<path fill="#FFFFFF" stroke="#0000FF" stroke-width="0.1764" stroke-linecap="round" stroke-linejoin="round" d="M192.182,281.746
	l2.617-6.325c33.363,20.417,44.098,63.872,24.079,97.476c-20.018,33.604-63.341,44.854-97.181,25.238s-45.607-62.802-26.396-96.873
	c19.211-34.071,62.253-46.353,96.551-27.549l-2.601,6.28c-30.831-17.365-69.893-6.727-87.662,23.872
	c-17.769,30.6-7.647,69.798,22.715,87.97c30.361,18.172,69.689,8.569,88.261-21.551
	C231.137,340.165,222.053,300.712,192.182,281.746z"/>
<path fill="#FFFFFF" stroke="#0000FF" stroke-width="0.1764" stroke-linecap="round" stroke-linejoin="round" d="M159.542,328.432
	c6.06,4.971,22.798-22.908,25.937-30.486c8.056-19.465,19.3-39.607,24.634-59.989c2.637-10.077,4.55-19.271,5.708-29.602
	c0.541-4.818,2.228-6.74-2.116-8.809c-5.818-2.771-11.637-5.542-17.456-8.314c-7.782-3.706-6.275-15.295,3.074-16.341
	c10.229-1.144,20.458-2.288,30.686-3.432c0.805-4.877-2.979-3.064-6.236-2.7c-6.794,0.76-13.588,1.52-20.383,2.28
	c-4.818,0.539-6.753,1.162-11.036,3.594c-6.423,3.647-4.941,4.011-3.37,11.228c1.001,4.6,0.474,5.876,4.547,7.816
	c5.876,2.799,11.753,5.597,17.629,8.396c4.586,2.184,0.029,18.438-1.334,23.648c-5.352,20.447-14.485,39.568-22.562,59.083
	c-2.414,5.833-4.252,14.417-8.253,19.397C172.52,312.277,166.031,320.354,159.542,328.432"/>
<polygon fill="#FFFFFF" stroke="#0000FF" stroke-width="0.1764" stroke-linecap="round" stroke-linejoin="round" points="
	278.903,326.52 279.818,324.998 280.922,323.676 209.777,239.233 208.323,242.747 "/>
<polygon fill="#FFFFFF" stroke="#0000FF" stroke-width="0.1764" stroke-linecap="round" stroke-linejoin="round" points="
	214.291,221.987 214.671,218.595 349.315,213.978 319.241,324.043 317.94,322.629 316.535,321.139 344.85,217.509 "/>
<polygon fill="#FFFFFF" stroke="#0000FF" stroke-width="0.1764" stroke-linecap="round" stroke-linejoin="round" points="
	294.398,315.328 296.243,314.934 297.74,314.795 291.154,286.258 293.65,285.71 293.292,284.314 285.032,285.187 285.151,287.282 
	287.845,286.932 "/>
<polygon fill="#FFFFFF" stroke="#0000FF" stroke-width="0.1764" stroke-linecap="round" stroke-linejoin="round" points="
	305.469,363.298 308.759,362.54 315.281,390.802 317.473,390.286 317.765,391.352 310.605,393.059 310.313,392.206 312.062,391.65 
	312.014,391.662 "/>
<polygon fill="#FFFFFF" stroke="#0000FF" stroke-width="0.1764" stroke-linecap="round" stroke-linejoin="round" points="
	417.252,331.427 416.865,332.59 416.798,333.766 416.796,334.852 324.364,342.328 324.093,338.962 "/>
<path fill="#FFFFFF" stroke="#0000FF" stroke-width="0.1764" stroke-linecap="round" stroke-linejoin="round" d="M353.744,339.952
	l6.73-0.545c2.333,28.847,23.546,52.631,51.938,58.233c28.394,5.604,57.053-8.338,70.169-34.136
	c13.117-25.797,7.499-57.168-13.756-76.81c-21.255-19.641-52.971-22.771-77.653-7.662l-3.826-5.574
	c27.206-16.838,62.29-13.53,85.868,8.098c23.579,21.626,29.896,56.294,15.467,84.851c-14.433,28.556-46.092,44.029-77.488,37.874
	C379.796,398.126,356.323,371.842,353.744,339.952z"/>
<path fill="#FFFFFF" stroke="#0000FF" stroke-width="0.1764" stroke-linecap="round" stroke-linejoin="round" d="M360.29,336.035
	l-6.737,0.545c-0.815-24.372,10.859-47.477,30.967-61.275l3.82,5.567C370.227,293.302,359.664,314.077,360.29,336.035z"/>
<polygon fill="#FFFFFF" stroke="#0000FF" stroke-width="0.1764" stroke-linecap="round" stroke-linejoin="round" points="
	347.353,221.156 348.519,216.889 423.51,326.152 422.44,326.414 421.365,326.904 420.314,327.459 "/>
<polygon fill="#FFFFFF" stroke="#0000FF" stroke-width="0.1764" stroke-linecap="round" stroke-linejoin="round" points="
	346.055,214.089 349.351,214.038 354.427,198.182 351.683,198.121 "/>
</svg>
