<?xml version="1.0" encoding="utf-8"?>
<!-- Generator: Adobe Illustrator 13.0.0, SVG Export Plug-In . SVG Version: 6.00 Build 14948)  -->
<!DOCTYPE svg PUBLIC "-//W3C//DTD SVG 1.1//EN" "http://www.w3.org/Graphics/SVG/1.1/DTD/svg11.dtd">
<svg version="1.1" id="Layer_1" xmlns="http://www.w3.org/2000/svg" xmlns:xlink="http://www.w3.org/1999/xlink" x="0px" y="0px"
	 width="576px" height="576px" viewBox="-0.943 -0.943 576 576" enable-background="new -0.943 -0.943 576 576"
	 xml:space="preserve">
<circle fill="#FFFFFF" stroke="#000000" stroke-width="2" stroke-linecap="round" stroke-linejoin="round" cx="287.057" cy="287.057" r="286.969"/>
<circle fill="#0000FF" cx="287.057" cy="287.057" r="261.666"/>
<polygon fill="#FF0000" stroke="#FF0000" stroke-width="0.1764" stroke-linecap="round" stroke-linejoin="round" points="
	77.312,442.335 90.307,458.583 115.259,483.862 128.457,494.317 496.811,131.77 490.7,123.783 479.632,111.429 462.757,94.263 
	445.644,79.811 "/>
<polygon fill="#FFFFFF" stroke="#0000FF" stroke-width="0.1764" stroke-linecap="round" stroke-linejoin="round" points="
	329.348,193.326 322.821,190.903 322.885,183.156 340.721,182.131 "/>
<polygon fill="#FFFFFF" stroke="#0000FF" stroke-width="0.1764" stroke-linecap="round" stroke-linejoin="round" points="
	373.828,253.763 423.51,326.152 422.44,326.414 421.365,326.904 420.314,327.459 371.384,256.168 "/>
<polygon fill="#FFFFFF" stroke="#0000FF" stroke-width="0.1764" stroke-linecap="round" stroke-linejoin="round" points="
	325.428,301.398 319.241,324.043 317.94,322.629 316.535,321.139 320.641,306.109 "/>
<path fill="#FFFFFF" stroke="#0000FF" stroke-width="0.1764" stroke-linecap="round" stroke-linejoin="round" d="M277.233,348.833
	c4.28,10.205,14.843,16.3,25.82,14.897c10.977-1.403,19.668-9.957,21.245-20.91c1.575-10.953-4.351-21.612-14.484-26.055
	L277.233,348.833z"/>
<path fill="#FFFFFF" stroke="#0000FF" stroke-width="0.1764" stroke-linecap="round" stroke-linejoin="round" d="M121.421,397.975
	c-33.697-19.735-45.298-62.877-26.042-96.852c19.256-33.975,62.229-46.185,96.474-27.411l-2.601,6.28
	c-20.208-11.382-44.963-11.07-64.879,0.815c-19.916,11.886-31.941,33.526-31.518,56.714c0.424,23.189,13.232,44.377,33.568,55.525
	L121.421,397.975z"/>
<path fill="#FFFFFF" stroke="#0000FF" stroke-width="0.1764" stroke-linecap="round" stroke-linejoin="round" d="M192.182,281.746
	l2.617-6.325c10.366,6.344,18.941,15.228,24.915,25.81l-5.003,4.925C209.455,296.196,201.688,287.782,192.182,281.746z"/>
<polygon fill="#FFFFFF" stroke="#0000FF" stroke-width="0.1764" stroke-linecap="round" stroke-linejoin="round" points="
	242.837,278.473 209.777,239.233 208.323,242.747 240.424,280.848 "/>
<polygon fill="#FFFFFF" stroke="#0000FF" stroke-width="0.1764" stroke-linecap="round" stroke-linejoin="round" points="
	214.291,221.987 214.671,218.595 306.887,215.433 303.331,218.933 "/>
<path fill="#FFFFFF" stroke="#0000FF" stroke-width="0.1764" stroke-linecap="round" stroke-linejoin="round" d="M360.29,336.035
	l-6.737,0.545c-0.815-24.372,10.859-47.477,30.967-61.275l3.82,5.567C370.227,293.302,359.664,314.077,360.29,336.035z"/>
<path fill="#FFFFFF" stroke="#0000FF" stroke-width="0.1764" stroke-linecap="round" stroke-linejoin="round" d="M353.744,339.952
	l6.73-0.545c2.333,28.847,23.546,52.631,51.938,58.233c28.394,5.604,57.053-8.338,70.169-34.136
	c13.117-25.797,7.499-57.168-13.756-76.81c-21.255-19.641-52.971-22.771-77.653-7.662l-3.826-5.574
	c27.206-16.838,62.29-13.53,85.868,8.098c23.579,21.626,29.896,56.294,15.467,84.851c-14.433,28.556-46.092,44.029-77.488,37.874
	C379.796,398.126,356.323,371.842,353.744,339.952z"/>
<polygon fill="#FFFFFF" stroke="#0000FF" stroke-width="0.1764" stroke-linecap="round" stroke-linejoin="round" points="
	417.252,331.427 416.865,332.59 416.798,333.766 416.796,334.852 324.364,342.328 324.093,338.962 "/>
<polygon fill="#FFFFFF" stroke="#0000FF" stroke-width="0.1764" stroke-linecap="round" stroke-linejoin="round" points="
	305.469,363.298 308.759,362.54 315.281,390.802 317.473,390.286 317.765,391.352 310.605,393.059 310.313,392.206 312.062,391.65 
	312.014,391.662 "/>
<path fill="#FFFFFF" stroke="#0000FF" stroke-width="0.1764" stroke-linecap="round" stroke-linejoin="round" d="M159.542,328.432
	c6.06,4.971,22.798-22.908,25.937-30.486c8.056-19.465,19.3-39.607,24.634-59.989c2.637-10.077,4.55-19.271,5.708-29.602
	c0.541-4.818,2.228-6.74-2.116-8.809c-5.818-2.771-11.637-5.542-17.456-8.314c-7.782-3.706-6.275-15.295,3.074-16.341
	c10.229-1.144,20.458-2.288,30.686-3.432c0.805-4.877-2.979-3.064-6.236-2.7c-6.794,0.76-13.588,1.52-20.383,2.28
	c-4.818,0.539-6.753,1.162-11.036,3.594c-6.423,3.647-4.941,4.011-3.37,11.228c1.001,4.6,0.474,5.876,4.547,7.816
	c5.876,2.799,11.753,5.597,17.629,8.396c4.586,2.184,0.029,18.438-1.334,23.648c-5.352,20.447-14.485,39.568-22.562,59.083
	c-2.414,5.833-4.252,14.417-8.253,19.397C172.52,312.277,166.031,320.354,159.542,328.432"/>
<circle fill="#FFFFFF" stroke="#0000FF" stroke-width="0.1764" stroke-linecap="round" stroke-linejoin="round" cx="424.935" cy="334.192" r="8.167"/>
<circle fill="#FFFFFF" stroke="#0000FF" stroke-width="0.1764" stroke-linecap="round" stroke-linejoin="round" cx="157.517" cy="336.342" r="8.167"/>
</svg>
