<?xml version="1.0" encoding="utf-8"?>
<!-- Generator: Adobe Illustrator 13.0.0, SVG Export Plug-In  -->
<!DOCTYPE svg PUBLIC "-//W3C//DTD SVG 1.1//EN" "http://www.w3.org/Graphics/SVG/1.1/DTD/svg11.dtd" [
	<!ENTITY ns_flows "http://ns.adobe.com/Flows/1.0/">
]>
<svg version="1.1"
	 xmlns="http://www.w3.org/2000/svg" xmlns:xlink="http://www.w3.org/1999/xlink" xmlns:a="http://ns.adobe.com/AdobeSVGViewerExtensions/3.0/"
	 x="0px" y="0px" width="576px" height="506px" viewBox="-0.781 -0.08 576 506" enable-background="new -0.781 -0.08 576 506"
	 xml:space="preserve">
<defs>
</defs>
<path fill="#FFFF00" stroke="#000000" stroke-width="0.5" stroke-linecap="round" stroke-linejoin="round" d="M4.398,459.145
	L260.403,15.732c5.531-9.58,15.753-15.482,26.815-15.482c11.063,0,21.284,5.902,26.815,15.482l256.005,443.413
	c5.531,9.58,5.531,21.384,0,30.964c-5.53,9.58-15.753,15.482-26.815,15.482H31.213c-11.062,0-21.284-5.902-26.815-15.482
	C-1.133,480.529-1.133,468.725,4.398,459.145z"/>
<path fill="#F91A0E" stroke="#FF0000" stroke-width="0.1764" stroke-linecap="round" stroke-linejoin="round" d="M31.124,493.206
	h512.191c6.618,0,12.734-3.531,16.044-9.264c3.31-5.731,3.31-12.794,0-18.525L303.263,21.846c-3.31-5.732-9.425-9.263-16.044-9.263
	c-6.619,0-12.734,3.531-16.043,9.263L15.08,465.417c-3.31,5.731-3.31,12.794,0,18.525C18.389,489.674,24.505,493.206,31.124,493.206
	z"/>
<polygon fill="#FFFF00" stroke="#FF0000" stroke-width="0.1764" stroke-linecap="round" stroke-linejoin="round" points="
	287.219,68.37 511.046,456.049 63.392,456.049 "/>
<polygon stroke="#000000" stroke-width="0.1764" stroke-linecap="round" stroke-linejoin="round" points="267.559,257.753 
	261.007,237.141 266.03,232.384 273.564,222.871 288.631,218.114 288.631,218.114 300.351,226.438 300.351,226.438 304.538,237.141 
	303.702,249.034 298.678,256.167 284.447,262.113 289.469,285.897 291.982,314.436 291.982,340.598 300.351,352.49 304.538,363.193 
	333.837,377.463 358.116,365.57 361.464,371.517 370.672,370.328 376.532,354.869 393.275,353.679 394.948,348.922 404.997,346.545 
	414.203,348.922 422.575,356.057 449.363,403.624 449.363,403.624 465.27,440.489 119.53,440.489 119.53,440.489 117.019,432.165 
	206.592,432.165 206.592,430.974 194.036,414.327 219.149,376.273 223.334,332.275 214.964,326.329 204.918,326.329 
	199.058,321.572 199.058,318.005 202.407,314.436 203.243,301.356 209.941,283.518 237.567,269.249 "/>
<polygon fill="#FFFF00" stroke="#000000" stroke-width="0.1764" stroke-linecap="round" stroke-linejoin="round" points="
	243.426,282.33 222.498,294.221 221.661,303.736 221.661,303.736 216.638,318.005 222.498,320.383 240.078,296.599 "/>
<polygon fill="#FFFF00" stroke="#000000" stroke-width="0.1764" stroke-linecap="round" stroke-linejoin="round" points="
	272.727,310.869 267.704,323.95 263.518,329.896 274.401,350.113 285.283,350.113 278.587,334.653 280.261,321.572 "/>
<polygon fill="#FFFF00" stroke="#000000" stroke-width="0.1764" stroke-linecap="round" stroke-linejoin="round" points="
	246.775,350.113 244.265,359.625 245.101,381.03 238.403,389.354 219.987,416.705 229.195,433.353 261.007,430.974 262.681,422.651 
	263.518,376.273 254.309,365.57 254.309,364.381 "/>
<polygon fill="#FFFF00" stroke="#000000" stroke-width="0.1764" stroke-linecap="round" stroke-linejoin="round" points="
	280.261,358.437 283.608,370.328 285.283,403.624 289.469,420.271 295.33,432.165 310.399,432.165 316.258,416.705 325.468,410.759 
	328.815,406.002 338.023,402.435 335.511,396.491 323.793,385.788 326.304,381.03 302.025,370.328 296.167,371.517 296.167,366.76 
	291.982,364.381 "/>
</svg>
