<?xml version="1.0" encoding="utf-8"?>
<!-- Generator: Adobe Illustrator 15.0.0, SVG Export Plug-In  -->
<!DOCTYPE svg PUBLIC "-//W3C//DTD SVG 1.1//EN" "http://www.w3.org/Graphics/SVG/1.1/DTD/svg11.dtd" [
	<!ENTITY ns_flows "http://ns.adobe.com/Flows/1.0/">
]>
<svg version="1.1"
	 xmlns="http://www.w3.org/2000/svg" xmlns:xlink="http://www.w3.org/1999/xlink" xmlns:a="http://ns.adobe.com/AdobeSVGViewerExtensions/3.0/"
	 x="0px" y="0px" width="982px" height="276px" viewBox="-0.5 -0.5 982 276" enable-background="new -0.5 -0.5 982 276"
	 xml:space="preserve">
<defs>
</defs>
<path fill="#FFFFFF" stroke="#000000" stroke-width="3" d="M979.473,52.625c-0.57-28.044-24.441-50.614-53.828-50.614
	c-0.36,0-0.717,0.019-1.076,0.026V1.5H54.277v0.052C25.711,2.631,2.87,25.035,2.59,52.625H2.577v158.395
	c-0.706,3.334-1.077,6.785-1.077,10.32c0,28.172,23.534,51.059,52.777,51.611v0.538h863.854c2.457,0.329,4.963,0.511,7.514,0.511
	c29.744,0,53.855-23.118,53.855-51.637c0-0.343-0.02-0.682-0.027-1.023h0.027V52.625H979.473z"/>
<rect x="38.5" y="30.5" stroke="#000000" width="234" height="216"/>
<path fill="#FFFFFF" stroke="#000000" d="M249.547,78.101c20.89,31.704-5.3,83.255-58.497,115.147
	c-53.196,31.893-113.255,32.047-134.145,0.345c-20.891-31.702,5.299-83.258,58.497-115.151
	C168.597,46.55,228.657,46.398,249.547,78.101z"/>
<path stroke="#000000" d="M239.145,85.838c17.735,26.915-6.104,71.642-53.244,99.903c-47.14,28.262-99.731,29.354-117.465,2.439
	c-17.735-26.914,6.103-71.643,53.243-99.905C168.818,60.016,221.411,58.925,239.145,85.838z"/>
<path fill="#FFFFFF" stroke="#000000" d="M228.902,93.324c13.912,21.113-7.896,58.063-48.707,82.53
	c-40.812,24.467-85.174,27.186-99.086,6.073c-13.912-21.112,7.895-58.063,48.707-82.531
	C170.627,74.93,214.991,72.212,228.902,93.324z"/>
<path stroke="#000000" d="M214.126,100.733c10.316,15.621-9.222,45.046-43.638,65.722c-34.416,20.676-70.677,24.773-80.993,9.152
	c-10.314-15.62,9.223-45.045,43.638-65.722C167.548,89.21,203.81,85.112,214.126,100.733z"/>
<path d="M323.622,123.254h13.769l-1.165,5.729c2.936-2.523,5.686-4.328,8.251-5.414c2.564-1.086,5.315-1.629,8.251-1.629
	c5.636,0,10.166,2.015,13.592,6.045c3.425,4.03,5.138,10.04,5.138,18.03c0,10.058-2.953,18.555-8.858,25.494
	c-5.062,5.922-11.053,8.883-17.97,8.883c-7.121,0-12.503-2.996-16.147-8.988l-5.821,28.963h-14.528L323.622,123.254z
	 M332.379,155.266c0,4.346,1.021,7.719,3.063,10.119c2.042,2.401,4.446,3.601,7.213,3.601c2.396,0,4.708-0.902,6.935-2.707
	c2.227-1.805,4.075-4.801,5.543-8.989c1.468-4.187,2.202-8.069,2.202-11.643c0-4.17-0.961-7.367-2.885-9.593
	c-1.923-2.225-4.371-3.338-7.34-3.338c-2.768,0-5.29,1.025-7.568,3.075c-2.278,2.05-4.042,5.064-5.29,9.041
	C333.003,148.81,332.379,152.288,332.379,155.266z"/>
<path d="M428.506,155.844H392.06c-0.034,0.596-0.051,1.051-0.051,1.367c0,3.715,1.021,6.711,3.063,8.988
	c2.042,2.278,4.531,3.417,7.467,3.417c4.825,0,8.588-2.593,11.288-7.78l13.009,2.26c-2.531,5.432-5.915,9.506-10.149,12.221
	c-4.235,2.716-8.985,4.074-14.25,4.074c-7.222,0-13.094-2.374-17.616-7.123c-4.522-4.748-6.783-11.029-6.783-18.844
	c0-7.639,2.041-14.438,6.125-20.395c5.568-8.06,13.515-12.09,23.842-12.09c6.581,0,11.811,2.111,15.692,6.334
	c3.88,4.223,5.821,10.137,5.821,17.741C429.519,149.66,429.181,152.936,428.506,155.844z M416.256,146.645
	c0.033-0.665,0.051-1.173,0.051-1.524c0-4.134-0.895-7.236-2.683-9.304c-1.789-2.067-4.185-3.102-7.188-3.102
	c-3.004,0-5.695,1.175-8.074,3.522c-2.379,2.348-3.991,5.817-4.834,10.408H416.256z M414.789,100.441h15.489l-16.4,15.769h-9.668
	L414.789,100.441z"/>
<path d="M444.25,123.254h13.566l-2.177,10.828c5.062-8.095,10.546-12.142,16.452-12.142c2.092,0,4.336,0.543,6.732,1.629
	l-5.568,12.353c-1.316-0.49-2.717-0.736-4.201-0.736c-2.498,0-5.037,0.981-7.618,2.944c-2.582,1.963-4.599,4.582-6.049,7.858
	c-1.451,3.277-2.885,8.472-4.303,15.585l-3.543,17.504h-14.528L444.25,123.254z"/>
<path d="M485.403,123.254h14.528l-11.237,55.824h-14.528L485.403,123.254z M489.655,102.018h14.527l-2.733,13.667h-14.527
	L489.655,102.018z"/>
<path d="M513.75,123.254h13.769l-1.164,5.729c2.936-2.523,5.687-4.328,8.251-5.414c2.564-1.086,5.315-1.629,8.251-1.629
	c5.636,0,10.166,2.015,13.592,6.045c3.425,4.03,5.138,10.04,5.138,18.03c0,10.058-2.953,18.555-8.858,25.494
	c-5.063,5.922-11.053,8.883-17.97,8.883c-7.121,0-12.504-2.996-16.148-8.988l-5.821,28.963h-14.527L513.75,123.254z
	 M522.508,155.266c0,4.346,1.02,7.719,3.063,10.119c2.041,2.401,4.445,3.601,7.213,3.601c2.396,0,4.708-0.902,6.935-2.707
	c2.228-1.805,4.075-4.801,5.543-8.989c1.469-4.187,2.202-8.069,2.202-11.643c0-4.17-0.962-7.367-2.885-9.593
	c-1.924-2.225-4.371-3.338-7.34-3.338c-2.768,0-5.29,1.025-7.568,3.075c-2.277,2.05-4.041,5.064-5.289,9.041
	C523.132,148.81,522.508,152.288,522.508,155.266z"/>
<path d="M581.023,179.078h-14.527l15.54-77.06h14.528l-5.568,27.439c3.272-2.663,6.327-4.582,9.162-5.756
	c2.835-1.174,5.872-1.761,9.111-1.761c4.354,0,7.796,1.297,10.326,3.89c2.531,2.594,3.797,5.992,3.797,10.198
	c0,2.243-0.473,5.712-1.417,10.408l-6.581,32.643h-14.527l6.732-33.273c0.708-3.609,1.063-5.922,1.063-6.938
	c0-1.857-0.557-3.346-1.67-4.468c-1.114-1.121-2.633-1.682-4.557-1.682c-2.43,0-4.758,0.876-6.985,2.628
	c-2.902,2.313-5.112,5.151-6.631,8.516c-0.844,1.858-1.958,6.221-3.341,13.088L581.023,179.078z"/>
<path d="M681.961,155.844h-36.446c-0.034,0.596-0.051,1.051-0.051,1.367c0,3.715,1.021,6.711,3.063,8.988
	c2.041,2.278,4.53,3.417,7.466,3.417c4.826,0,8.588-2.593,11.288-7.78l13.01,2.26c-2.531,5.432-5.915,9.506-10.149,12.221
	c-4.235,2.716-8.985,4.074-14.249,4.074c-7.223,0-13.095-2.374-17.616-7.123c-4.522-4.748-6.783-11.029-6.783-18.844
	c0-7.639,2.042-14.438,6.125-20.395c5.568-8.06,13.516-12.09,23.842-12.09c6.581,0,11.812,2.111,15.692,6.334
	c3.881,4.223,5.821,10.137,5.821,17.741C682.973,149.66,682.635,152.936,681.961,155.844z M669.711,146.645
	c0.033-0.665,0.05-1.173,0.05-1.524c0-4.134-0.895-7.236-2.683-9.304c-1.789-2.067-4.185-3.102-7.188-3.102
	c-3.004,0-5.695,1.175-8.074,3.522c-2.379,2.348-3.991,5.817-4.834,10.408H669.711z M668.242,100.441h15.49l-16.401,15.769h-9.668
	L668.242,100.441z"/>
<path d="M697.702,123.254h13.566l-2.177,10.828c5.063-8.095,10.546-12.142,16.451-12.142c2.093,0,4.336,0.543,6.732,1.629
	l-5.567,12.353c-1.316-0.49-2.717-0.736-4.202-0.736c-2.497,0-5.036,0.981-7.618,2.944c-2.581,1.963-4.599,4.582-6.049,7.858
	c-1.451,3.277-2.886,8.472-4.303,15.585l-3.543,17.504h-14.528L697.702,123.254z"/>
<path d="M738.856,123.254h14.527l-11.237,55.824h-14.528L738.856,123.254z M743.108,102.018h14.527l-2.733,13.667h-14.527
	L743.108,102.018z"/>
<path d="M803.7,123.254h13.363l-15.489,77.112h-14.528l5.214-26.02c-2.564,2.173-4.978,3.724-7.238,4.652
	c-2.262,0.928-4.826,1.393-7.694,1.393c-5.703,0-10.275-1.979-13.718-5.939c-3.442-3.96-5.163-9.725-5.163-17.294
	c0-5.993,1.164-11.827,3.492-17.504c2.329-5.677,5.56-10.048,9.694-13.115c4.133-3.066,8.613-4.599,13.439-4.599
	c7.762,0,13.38,3.364,16.856,10.092L803.7,123.254z M772.468,156.896c0,3.75,0.979,6.728,2.936,8.936
	c1.957,2.208,4.319,3.312,7.087,3.312c2.463,0,4.843-0.868,7.138-2.602c2.295-1.735,4.159-4.6,5.594-8.594
	c1.434-3.995,2.151-7.833,2.151-11.512c0-4.17-1.03-7.438-3.088-9.803c-2.059-2.366-4.438-3.548-7.138-3.548
	c-2.228,0-4.497,0.912-6.809,2.733c-2.312,1.822-4.201,4.828-5.669,9.015C773.202,149.02,772.468,153.041,772.468,156.896z"/>
<path d="M830.884,123.254h14.528l-6.632,33.063c-0.81,3.96-1.215,6.431-1.215,7.412c0,1.612,0.573,2.997,1.722,4.153
	c1.146,1.156,2.614,1.735,4.403,1.735c1.282,0,2.548-0.254,3.797-0.762c1.248-0.508,2.531-1.279,3.847-2.313
	c1.316-1.033,2.497-2.216,3.544-3.548c1.045-1.331,2.024-3.083,2.936-5.256c0.641-1.611,1.333-4.24,2.075-7.885l5.366-26.598h14.527
	l-11.237,55.824h-13.566l1.519-7.569c-5.939,5.922-12.401,8.883-19.387,8.883c-4.422,0-7.896-1.314-10.428-3.942
	c-2.531-2.628-3.797-6.15-3.797-10.565c0-1.927,0.573-5.764,1.722-11.512L830.884,123.254z"/>
<path d="M935.414,155.844h-36.446c-0.034,0.596-0.051,1.051-0.051,1.367c0,3.715,1.021,6.711,3.063,8.988
	c2.041,2.278,4.53,3.417,7.466,3.417c4.826,0,8.588-2.593,11.288-7.78l13.01,2.26c-2.531,5.432-5.915,9.506-10.149,12.221
	c-4.235,2.716-8.985,4.074-14.249,4.074c-7.223,0-13.095-2.374-17.616-7.123c-4.522-4.748-6.783-11.029-6.783-18.844
	c0-7.639,2.042-14.438,6.125-20.395c5.568-8.06,13.516-12.09,23.842-12.09c6.581,0,11.812,2.111,15.692,6.334
	c3.881,4.223,5.821,10.137,5.821,17.741C936.426,149.66,936.088,152.936,935.414,155.844z M923.164,146.645
	c0.033-0.665,0.05-1.173,0.05-1.524c0-4.134-0.895-7.236-2.683-9.304c-1.789-2.067-4.185-3.102-7.188-3.102
	c-3.004,0-5.695,1.175-8.074,3.522c-2.379,2.348-3.991,5.817-4.834,10.408H923.164z"/>
</svg>
