<?xml version="1.0" encoding="utf-8"?>
<!-- Generator: Adobe Illustrator 13.0.0, SVG Export Plug-In . SVG Version: 6.00 Build 14948)  -->
<!DOCTYPE svg PUBLIC "-//W3C//DTD SVG 1.1//EN" "http://www.w3.org/Graphics/SVG/1.1/DTD/svg11.dtd">
<svg version="1.1" id="svg2816" xmlns:svg="http://www.w3.org/2000/svg"
	 xmlns="http://www.w3.org/2000/svg" xmlns:xlink="http://www.w3.org/1999/xlink" x="0px" y="0px" width="574.938px"
	 height="574.938px" viewBox="0 0 574.938 574.938" enable-background="new 0 0 574.938 574.938" xml:space="preserve">
<path id="path6" fill="#FFFFFF" stroke="#000000" stroke-width="2" stroke-linecap="round" stroke-linejoin="round" d="
	M41.496,574.438h491.945c10.872,0,21.3-4.318,28.988-12.007c7.688-7.688,12.007-18.115,12.007-28.988V41.496
	c0-10.873-4.319-21.302-12.007-28.988C554.74,4.819,544.314,0.5,533.442,0.5H41.496c-10.873,0-21.302,4.317-28.988,12.007
	C4.819,20.195,0.5,30.623,0.5,41.496v491.945c0,10.873,4.317,21.3,12.007,28.988C20.195,570.117,30.623,574.438,41.496,574.438z"/>
<path fill="#0000FF" d="M42.659,28.959c-6.746,0-12.216,5.468-12.216,12.214v456.786l477.582-469H42.659z"/>
<path fill="#0000FF" stroke="#000000" d="M80.775,541.934h451.929c6.746,0,12.216-5.47,12.216-12.214V79.202L80.775,541.934z"/>
<path id="path253" fill="#FFFFFF" stroke="#FFFFFF" stroke-width="6" stroke-linejoin="round" d="M438.343,248.849l-28.566-101.007
	l-9.813-5.316l-217.504-1.771l-13.083,7.089L134.419,248.85c-14.486,2.257-19.973,9.015-23.919,16.541v96.871h27.801v72.653h49.062
	v-72.653h201.15v74.427h49.062v-74.427h22.896V266.57C456.033,255.538,448.1,249.851,438.343,248.849L438.343,248.849z
	 M167.683,248.849l24.593-81.515l196.244,3.544l19.373,77.971H167.683z"/>
<circle id="circle257" fill="#0000FF" cx="165.063" cy="300.662" r="18.56"/>
<circle id="circle259" fill="#0000FF" cx="410.595" cy="300.131" r="18.56"/>
<rect x="180.636" y="427.969" fill="#0000FF" width="18" height="16.667"/>
<path fill="#FF0000" d="M544.919,41.173c0-6.745-5.47-12.214-12.216-12.214h-24.678l-477.582,469v31.761
	c0,6.744,5.47,12.214,12.216,12.214h38.115L544.919,79.202V41.173z"/>
</svg>
