<?xml version="1.0" encoding="utf-8"?>
<!-- Generator: Adobe Illustrator 13.0.0, SVG Export Plug-In . SVG Version: 6.00 Build 14948)  -->
<!DOCTYPE svg PUBLIC "-//W3C//DTD SVG 1.1//EN" "http://www.w3.org/Graphics/SVG/1.1/DTD/svg11.dtd">
<svg version="1.1" id="Calque_1" xmlns="http://www.w3.org/2000/svg" xmlns:xlink="http://www.w3.org/1999/xlink" x="0px" y="0px"
	 width="576px" height="576px" viewBox="-0.322 -0.549 576 576" enable-background="new -0.322 -0.549 576 576"
	 xml:space="preserve">
<path fill="#FFFFFF" stroke="#000000" stroke-width="2" stroke-linecap="round" stroke-linejoin="round" d="M41.496,574.438h491.946
	c10.872,0,21.3-4.318,28.988-12.007c7.688-7.688,12.007-18.115,12.007-28.988V41.496c0-10.873-4.319-21.301-12.007-28.988
	C554.742,4.819,544.314,0.5,533.442,0.5H41.496c-10.873,0-21.301,4.318-28.988,12.007C4.818,20.195,0.5,30.623,0.5,41.496v491.946
	c0,10.873,4.318,21.3,12.008,28.988C20.195,570.118,30.623,574.438,41.496,574.438z"/>
<path fill="#0000FF" d="M544.92,529.72c0,6.744-5.469,12.214-12.215,12.214H42.658c-6.745,0-12.213-5.47-12.213-12.214V41.173
	c0-6.746,5.468-12.214,12.213-12.214h490.047c6.746,0,12.215,5.469,12.215,12.214V529.72z"/>
<g>
	<ellipse fill="#FFFFFF" cx="149.541" cy="325.252" rx="83.475" ry="81.9"/>
	<ellipse fill="#0000FF" cx="149.539" cy="324.202" rx="69.477" ry="68.168"/>
	<ellipse fill="#FFFFFF" cx="428.316" cy="324.727" rx="83.475" ry="81.9"/>
	<ellipse fill="#0000FF" cx="428.314" cy="323.677" rx="69.477" ry="68.168"/>
	<ellipse fill="#FFFFFF" cx="302.316" cy="336.277" rx="25.725" ry="24.15"/>
	<path fill="#FFFFFF" d="M228.032,147.278c-14.692-0.4-37.32-2.17-44.367,8.4c-12.555,18.828,3.646,28.709,19.95,33.6
		c-8.318,26.558-16.634,53.117-24.952,79.675c-6.825,21.798-11.921,37.11-29.648,52.625c24.794,10.625,35.641-35.757,41.369-51.481
		c10.711-29.39,21.42-58.779,32.131-88.169c-8.929-2.976-17.856-5.949-26.781-8.925c-4.975-1.659-0.396-12.075,5.109-12.075
		c8.624,0,17.249,0,25.873,0v1.05h9.45v-14.7H228.032z"/>
	<rect x="208.866" y="197.677" fill="#FFFFFF" width="147" height="13.65"/>
	<polygon fill="#FFFFFF" points="352.716,187.177 308.616,326.827 318.066,334.177 367.416,189.278 375.816,185.077 
		387.366,181.927 393.666,174.577 392.616,169.327 389.466,161.977 385.266,159.877 330.666,160.927 323.316,166.177 
		326.466,173.528 	"/>
	<polygon fill="#FFFFFF" points="355.866,197.677 432.516,320.528 425.166,323.677 347.466,216.577 	"/>
	<polygon fill="#FFFFFF" points="307.566,329.978 419.916,321.577 426.216,331.028 312.816,343.627 	"/>
	<ellipse fill="#FFFFFF" cx="428.316" cy="323.677" rx="14.7" ry="14.175"/>
	<ellipse fill="#FFFFFF" cx="149.016" cy="321.577" rx="14.7" ry="14.175"/>
	<polygon fill="#FFFFFF" points="200.702,218.327 297.765,325.627 290.612,336.977 196.616,233.802 	"/>
	
		<rect x="300.861" y="382.244" transform="matrix(-0.9922 0.125 -0.125 -0.9922 671.6719 729.9599)" fill="#FFFFFF" width="24.149" height="7.614"/>
	<line fill="none" stroke="#FFFFFF" stroke-width="5" x1="293.916" y1="286.927" x2="312.816" y2="384.577"/>
	
		<rect x="280.915" y="281.79" transform="matrix(-0.9922 0.1249 -0.1249 -0.9922 619.3608 532.358)" fill="#FFFFFF" width="24.149" height="7.614"/>
</g>
<path fill="#FF0000" d="M546.45,41.728c0-6.758-5.48-12.238-12.239-12.238h-24.726L30.974,499.405v31.823
	c0,6.757,5.48,12.237,12.24,12.237h38.189L546.45,79.832V41.728z"/>
</svg>
